<?xml version="1.0" standalone="no"?>
<!DOCTYPE svg PUBLIC "-//W3C//DTD SVG 20010904//EN"
 "http://www.w3.org/TR/2001/REC-SVG-20010904/DTD/svg10.dtd">
<svg version="1.0" xmlns="http://www.w3.org/2000/svg"
 width="225.000000pt" height="225.000000pt" viewBox="0 0 225.000000 225.000000"
 preserveAspectRatio="xMidYMid meet">
<metadata>
Created by potrace 1.10, written by Peter Selinger 2001-2011
</metadata>
<g transform="translate(0.000000,225.000000) scale(0.100000,-0.100000)"
fill="#000000" stroke="none">
<path d="M1495 2240 c-85 -12 -159 -84 -176 -171 -4 -24 -8 -202 -9 -395 l0
-351 -31 -44 c-81 -112 -279 -274 -404 -328 -150 -66 -345 -67 -512 -4 -48 18
-65 14 -88 -20 -14 -22 -14 -31 0 -103 23 -110 75 -210 152 -294 116 -125 235
-194 417 -241 61 -15 132 -36 158 -46 l48 -18 0 -70 c0 -83 23 -131 67 -141
15 -3 34 -8 42 -10 8 -3 11 1 7 11 -4 11 2 15 24 15 20 0 30 -5 30 -15 0 -8 6
-15 13 -15 24 0 39 18 35 41 -3 22 -9 24 -66 29 -40 3 -66 10 -72 20 -5 8 -10
43 -10 77 0 61 0 61 33 68 17 4 48 17 67 29 19 13 49 26 65 30 131 32 279 120
376 223 112 119 172 262 172 413 1 153 -45 277 -152 410 -91 112 -103 152
-108 345 -2 98 0 166 6 175 8 12 46 16 192 20 l182 5 20 27 c33 44 16 73 -89
148 -50 36 -110 80 -135 98 -90 69 -169 94 -254 82z m137 -92 c69 -29 73 -38
43 -89 -13 -24 -25 -59 -25 -76 0 -30 -3 -33 -30 -33 -44 0 -87 -25 -106 -62
-14 -26 -15 -58 -12 -207 5 -203 18 -249 94 -348 130 -170 155 -228 162 -374
5 -110 -10 -176 -61 -274 -47 -89 -164 -201 -262 -252 -112 -57 -125 -60 -125
-30 0 31 -26 54 -47 41 -8 -5 -21 -26 -28 -47 -16 -48 -28 -61 -69 -81 -39
-18 -102 -21 -143 -5 -38 14 -83 58 -83 82 0 30 -19 57 -40 57 -25 0 -42 -33
-34 -65 8 -31 -3 -32 -79 -6 -179 62 -323 182 -395 331 -23 47 -45 104 -48
127 l-6 42 58 -19 c33 -10 86 -21 119 -25 51 -7 67 -14 106 -49 125 -112 384
-173 580 -136 142 27 265 124 333 261 44 89 46 134 7 134 -26 0 -26 0 -70 -97
-67 -150 -213 -238 -396 -238 -106 0 -242 32 -326 76 l-72 38 79 17 c175 37
320 124 481 285 158 158 147 118 153 574 5 415 4 408 60 447 52 36 98 36 182
1z m278 -197 c0 -3 -43 -5 -95 -3 -90 3 -95 5 -95 25 0 12 9 36 20 54 l19 32
76 -51 c41 -29 75 -54 75 -57z m-1241 -1108 c-7 -10 -14 -19 -15 -21 -1 -1 -9
0 -18 4 -29 11 -19 34 15 34 28 0 30 -2 18 -17z m628 -490 c4 -11 -26 -27 -35
-19 -2 3 -2 12 2 21 6 18 27 16 33 -2z m-377 -31 c-6 -2 -18 -1 -26 2 -14 5
-14 9 -3 22 12 14 14 14 26 -2 9 -13 10 -20 3 -22z"/>
<path d="M1511 2086 c-21 -26 -9 -51 24 -51 27 0 30 3 30 30 0 23 -5 31 -21
33 -11 2 -26 -4 -33 -12z"/>
<path d="M1286 1068 c-103 -105 -127 -134 -119 -147 25 -40 51 -26 174 98 103
103 120 125 117 149 -6 55 -37 38 -172 -100z"/>
<path d="M1624 892 c-6 -4 -17 -25 -24 -47 -31 -98 -90 -182 -165 -236 -50
-36 -60 -73 -25 -84 28 -9 77 24 143 95 80 86 144 232 117 265 -14 16 -29 19
-46 7z"/>
<path d="M517 703 c-28 -28 45 -118 147 -182 57 -36 81 -39 95 -12 13 24 1 38
-69 84 -30 20 -73 54 -95 76 -37 39 -63 50 -78 34z"/>
</g>
</svg>
